<mxfile host="Electron" agent="Mozilla/5.0 (Windows NT 10.0; Win64; x64) AppleWebKit/537.36 (KHTML, like Gecko) draw.io/25.0.2 Chrome/128.0.6613.186 Electron/32.2.5 Safari/537.36" version="25.0.2">
  <diagram name="Page-1" id="Iyse95Z_H3U2H-QRPCRA">
    <mxGraphModel dx="1434" dy="836" grid="1" gridSize="10" guides="1" tooltips="1" connect="1" arrows="1" fold="1" page="1" pageScale="1" pageWidth="850" pageHeight="1100" math="0" shadow="0">
      <root>
        <mxCell id="0" />
        <mxCell id="1" parent="0" />
        <mxCell id="7iM_iTg1HGX7Hh2-i16W-1" value="V1" style="rounded=0;orthogonalLoop=1;jettySize=auto;html=1;entryX=0;entryY=0.5;entryDx=0;entryDy=0;" edge="1" parent="1" source="7iM_iTg1HGX7Hh2-i16W-5" target="7iM_iTg1HGX7Hh2-i16W-6">
          <mxGeometry relative="1" as="geometry" />
        </mxCell>
        <mxCell id="7iM_iTg1HGX7Hh2-i16W-2" style="rounded=0;orthogonalLoop=1;jettySize=auto;html=1;entryX=0;entryY=0.5;entryDx=0;entryDy=0;" edge="1" parent="1" source="7iM_iTg1HGX7Hh2-i16W-5" target="7iM_iTg1HGX7Hh2-i16W-7">
          <mxGeometry relative="1" as="geometry" />
        </mxCell>
        <mxCell id="7iM_iTg1HGX7Hh2-i16W-3" value="V2" style="edgeLabel;html=1;align=center;verticalAlign=middle;resizable=0;points=[];" vertex="1" connectable="0" parent="7iM_iTg1HGX7Hh2-i16W-2">
          <mxGeometry x="-0.0154" y="3" relative="1" as="geometry">
            <mxPoint as="offset" />
          </mxGeometry>
        </mxCell>
        <mxCell id="7iM_iTg1HGX7Hh2-i16W-4" value="V3" style="rounded=0;orthogonalLoop=1;jettySize=auto;html=1;" edge="1" parent="1" source="7iM_iTg1HGX7Hh2-i16W-5" target="7iM_iTg1HGX7Hh2-i16W-9">
          <mxGeometry relative="1" as="geometry" />
        </mxCell>
        <mxCell id="7iM_iTg1HGX7Hh2-i16W-5" value="master" style="ellipse;whiteSpace=wrap;html=1;fillColor=#dae8fc;strokeColor=#6c8ebf;" vertex="1" parent="1">
          <mxGeometry x="110" y="380" width="80" height="80" as="geometry" />
        </mxCell>
        <mxCell id="7iM_iTg1HGX7Hh2-i16W-6" value="model-binding" style="ellipse;whiteSpace=wrap;html=1;fillColor=#dae8fc;strokeColor=#6c8ebf;" vertex="1" parent="1">
          <mxGeometry x="385" y="130" width="80" height="80" as="geometry" />
        </mxCell>
        <mxCell id="7iM_iTg1HGX7Hh2-i16W-7" value="model-binding" style="ellipse;whiteSpace=wrap;html=1;fillColor=#dae8fc;strokeColor=#6c8ebf;" vertex="1" parent="1">
          <mxGeometry x="530" y="230" width="80" height="80" as="geometry" />
        </mxCell>
        <mxCell id="7iM_iTg1HGX7Hh2-i16W-9" value="dependency-injection" style="ellipse;whiteSpace=wrap;html=1;fillColor=#fff2cc;strokeColor=#d6b656;" vertex="1" parent="1">
          <mxGeometry x="540" y="350" width="80" height="80" as="geometry" />
        </mxCell>
      </root>
    </mxGraphModel>
  </diagram>
</mxfile>
